<svg viewBox="0 0 120 85" xmlns="http://www.w3.org/2000/svg">
	<path d="m 55.669087,3.99e-6 c 1.524155,0 3.040519,0.01199386 4.328831,0.02815951 L 59.76571,0.0323353 c 1.516364,-0.02033743 3.036883,-0.02815951 4.561039,-0.02815951 14.995844,0 29.771428,0.93239263 42.545971,2.56460121 l 0.10805,0.023988 c 5.0852,1.4314417 9.08624,5.4754601 10.50286,10.705828 h 0.004 l -0.15169,-0.981411 C 119.08363,21.776691 120,31.529268 120,41.499298 l -0.004,0.979325 v -0.0266 0.05215 -0.02555 l 0.004,1.03043 c 0,9.965859 -0.91221,19.722607 -2.50858,28.200705 l -0.0239,0.104295 c -1.39221,5.125552 -5.39325,9.170092 -10.5865,10.625 l 1.73611,-0.176779 c -14.51117,1.805337 -29.290391,2.73773 -44.290391,2.73773 -1.52,0 -3.04052,-0.01199 -4.328831,-0.02816 l 0.232207,-0.0042 c -1.520519,0.02034 -3.040519,0.02816 -4.561038,0.02816 -14.995325,0 -29.77091,-0.932393 -42.545975,-2.564601 l -0.108051,-0.02399 C 7.9298657,80.975801 3.9288267,76.931783 2.5127228,71.701415 l 0.1516883,0.981411 C 0.9163592,63.223317 -4.44e-6,53.47074 -4.44e-6,43.501231 L 0.00363192,42.52347 0.0041514,42.55215 V 42.49583 L 0.00363192,42.52347 -4.44e-6,41.495126 c 0,-9.97003 0.91220779,-19.726257 2.51272724,-28.204877 l 0.023896,-0.104294 C 3.9246709,8.0604027 7.9257099,4.0200346 13.114801,2.5609549 L 11.378697,2.737734 C 25.889866,0.93239662 40.673762,3.99e-6 55.669087,3.99e-6 Z" fill="#002060" fill-rule="evenodd" style="stroke-width:0.520053" />
	<path d="m 78.859681,52.347878 8.692202,15.197416 -9.000093,0.154889 -7.246452,-12.74694 z M 45.869899,38.85362 l 8.061394,1.457706 -7.717638,14.4059 38.703118,-9.877307 -9.000101,-2.016236 -1.692255,-3.024086 27.462093,2.946604 -72.288879,24.834463 -0.174209,0.132668 0.05201,-0.091 -0.188772,0.0651 0.269389,-0.204378 z m -18.031396,-4.636775 31.53934,3.64451 1.230973,2.171218 z m 30.847148,-17.988512 16.66156,29.27827 -8.123275,2.046921 -8.307905,-14.34453 -1.96893,2.946604 -8.84668,-1.070258 z" fill="#ffffff" fill-rule="evenodd" style="stroke-width:0.520054" />
</svg>
