<svg viewBox="0 0 620 70" xmlns="http://www.w3.org/2000/svg">
	<path d="m 46.028045,0 c 1.260008,0 2.51303,0.0097805 3.579728,0.02305404 l -0.19331,0.003493 c 1.253022,-0.01676658 2.510701,-0.02328699 3.77071,-0.02328699 12.399789,0 24.615584,0.76800484 35.177764,2.11212985 l 0.0885,0.019795 c 4.20624,1.1787874 7.51347,4.5090594 8.684976,8.8164531 h 0.0023 L 97.012979,10.14358 c 1.446331,7.790196 2.203268,15.821643 2.203268,24.03217 l -0.0023,0.806662 v -0.02188 0.04285 -0.02095 l 0.0023,0.848576 c 0,8.206335 -0.754608,16.242676 -2.072843,23.224114 l -0.02096,0.08616 c -1.150544,4.219602 -4.457775,7.55197 -8.752519,8.748921 l 1.434686,-0.144378 C 77.807744,69.231529 65.587291,70 53.185173,70 c -1.255351,0 -2.51303,-0.0093 -3.5774,-0.02329 l 0.190981,-0.0023 c -1.257679,0.01629 -2.51303,0.02329 -3.770709,0.02329 -12.398858,0 -24.615353,-0.76847 -35.177765,-2.11213 L 10.76085,67.86462 C 6.5564686,66.686248 3.2483055,63.356209 2.077499,59.048116 l 0.1253021,0.808059 C 0.75763407,52.066678 -1.440645e-6,44.034996 -1.440645e-6,35.824468 L 0.0027934,35.019204 l 4.6581e-4,0.02375 v -0.04634 L 0.0027934,35.019194 -1.440645e-6,34.172489 C -1.440645e-6,25.96173 0.75414052,17.927255 2.077499,10.944884 l 0.019797,-0.08593 C 3.2448119,6.6379558 6.5529752,3.3104783 10.843293,2.1088695 L 9.4079078,2.2546462 C 21.405938,0.76777199 33.629187,0 46.028045,0 Z" fill="#002060" fill-rule="evenodd" style="stroke-width:1.00233" clip-path="url(#clipPath102)" />
	<path d="m 65.201836,43.109044 7.186707,12.515543 -7.441271,0.12759 -5.991446,-10.497551 z M 37.92556,31.996052 l 6.665236,1.200496 -6.381094,11.863678 32.000261,-8.134139 -7.441505,-1.660511 -1.399051,-2.490304 22.705774,2.426509 -59.768894,20.451805 -0.144167,0.109263 0.04309,-0.07493 -0.156045,0.05359 0.222655,-0.168185 z m -14.908464,-3.818388 26.076891,3.001355 1.01779,1.788101 z M 48.521743,13.363573 62.297761,37.47495 55.581286,39.160749 48.712258,27.34764 47.084263,29.774149 39.769924,28.892858 Z" fill="#ffffff" fill-rule="evenodd" style="stroke-width:1.00041" clip-path="url(#clipPath99)" />
	<path d="m 518.73195,5.2523305 c 1.69628,-0.607539 3.59321,-0.09251 4.74236,1.2675549 L 558.65772,48.256646 V 9.2266724 c 0,-2.336755 1.91045,-4.2251827 4.27442,-4.2251827 2.36398,0 4.27443,1.8884277 4.27443,4.2251827 V 59.928817 c 0,1.782581 -1.12215,3.366803 -2.81842,3.97433 -1.69627,0.607537 -3.59321,0.0925 -4.74236,-1.267544 L 524.46237,20.898838 v 39.029979 c 0,2.336748 -1.91043,4.225169 -4.27441,4.225169 -2.36399,0 -4.27443,-1.888421 -4.27443,-4.225169 V 9.2266724 c 0,-1.782588 1.12215,-3.366803 2.81842,-3.9743419 z" fill="#002060" style="stroke:#002060;stroke-width:3;stroke-dasharray:none;stroke-opacity:1" />
	<path d="m 583.94454,5.0017407 c -4.76487,0 -8.63887,3.7894637 -8.63887,8.4503643 v 21.12591 21.125913 c 0,4.660877 3.874,8.450368 8.63887,8.450368 h 30.23601 c 2.38915,0 4.31943,-1.888161 4.31943,-4.225189 0,-2.337008 -1.93028,-4.225179 -4.31943,-4.225179 H 583.94454 V 38.803203 h 21.59715 c 2.38915,0 4.31943,-1.888172 4.31943,-4.225188 0,-2.337014 -1.93028,-4.225182 -4.31943,-4.225182 H 583.94454 V 13.452105 h 30.23601 c 2.38915,0 4.31943,-1.888168 4.31943,-4.2251826 0,-2.337049 -1.93028,-4.2251817 -4.31943,-4.2251817 z" fill="#002060" style="stroke:#002060;stroke-width:3;stroke-dasharray:none;stroke-opacity:1" clip-path="url(#clipPath87)" />
	<path d="m 449.95954,19.644618 c -8.49497,-8.252269 -21.17615,-8.252269 -29.67103,0 -8.49493,8.252367 -8.49493,21.627693 0,29.879961 8.49488,8.252359 21.17606,8.252359 29.67103,0 1.69892,-1.650401 4.45808,-1.650401 6.15709,0 1.699,1.650492 1.699,4.330859 0,5.98126 -11.89289,11.553242 -30.07876,11.553242 -41.97165,0 -11.89288,-11.553161 -11.89288,-30.276059 0,-41.829311 11.89289,-11.5531977 30.07876,-11.5531977 41.97165,0 1.699,1.650491 1.699,4.33086 0,5.981343 -1.69901,1.650402 -4.45817,1.650402 -6.15709,0 z" fill="#002060" style="stroke:#002060;stroke-width:3;stroke-dasharray:none;stroke-opacity:1" clip-path="url(#clipPath79)" />
	<path d="m 367.31236,14.87631 c -2.71314,1.150449 -4.17094,2.916264 -4.57589,5.270678 -0.32396,1.886216 -0.0944,3.10356 0.26997,3.932952 0.37795,0.84277 1.06636,1.658792 2.25419,2.488193 2.59165,1.792572 6.51962,2.9564 11.45995,4.347651 0.13498,0.04012 0.25646,0.08024 0.39144,0.107014 4.41391,1.2441 9.71868,2.755735 13.61966,5.444586 2.11921,1.458137 4.03596,3.411234 5.21029,6.033201 1.18784,2.648716 1.45781,5.618492 0.89088,8.869195 -0.98536,5.685381 -4.76485,9.591582 -9.69169,11.678451 -4.77835,2.03336 -10.67705,2.394548 -16.69723,1.458133 h -0.027 v 0 c -3.23956,-0.521717 -8.46336,-2.287529 -11.82441,-3.424613 -0.64791,-0.227409 -1.24182,-0.414698 -1.72776,-0.575227 -2.24069,-0.762506 -3.45554,-3.183814 -2.71314,-5.431203 0.74241,-2.247408 3.19908,-3.451372 5.46676,-2.715626 0.66142,0.214049 1.37682,0.454838 2.14621,0.722396 3.42854,1.150445 7.61297,2.568458 10.04265,2.956396 4.96732,0.762506 9.11126,0.334428 11.94588,-0.869536 2.71313,-1.150454 4.15743,-2.916265 4.57587,-5.270673 0.32396,-1.886211 0.0944,-3.103555 -0.26996,-3.932961 -0.37795,-0.842775 -1.06635,-1.658791 -2.2542,-2.488177 -2.59165,-1.792571 -6.51961,-2.956405 -11.45994,-4.347658 -0.13499,-0.0401 -0.25647,-0.0802 -0.39145,-0.10702 -4.4139,-1.24409 -9.71868,-2.755734 -13.61965,-5.444585 -2.11922,-1.458137 -4.03596,-3.411238 -5.2103,-6.033194 -1.18783,-2.648721 -1.4578,-5.618501 -0.89088,-8.869201 l 4.25192,0.735757 -4.26542,-0.722378 c 0.98537,-5.685379 4.76486,-9.5915716 9.69169,-11.6784526 4.77835,-2.0333476 10.67705,-2.3945507 16.69724,-1.4581275 1.75476,0.2675417 7.07304,1.2842285 8.98978,1.7925725 2.30819,0.601968 3.67151,2.9563916 3.06408,5.2439296 -0.60741,2.287527 -2.98309,3.638633 -5.29127,3.036655 -1.5118,-0.401322 -6.49262,-1.364493 -8.11241,-1.605278 l 0.66141,-4.2138796 -0.66141,4.2138796 c -4.98083,-0.775885 -9.11127,-0.334444 -11.95938,0.869529 z" fill="#002060" style="stroke:#002060;stroke-width:3;stroke-dasharray:none;stroke-opacity:1" clip-path="url(#clipPath91)" />
	<path d="m 316.59066,13.451845 c -11.89228,0 -21.53281,9.458347 -21.53281,21.125893 0,11.667548 9.64053,21.12589 21.53281,21.12589 11.89228,0 21.53282,-9.458342 21.53282,-21.12589 0,-11.667546 -9.64054,-21.125893 -21.53282,-21.125893 z m 30.14594,21.125893 c 0,16.334544 -13.49677,29.576248 -30.14594,29.576248 -16.64917,0 -30.14594,-13.241704 -30.14594,-29.576248 0,-16.334535 13.49677,-29.5762483 30.14594,-29.5762483 16.64917,0 30.14594,13.2417133 30.14594,29.5762483 z" fill="#002060" style="stroke:#002060;stroke-width:3;stroke-dasharray:none;stroke-opacity:1" />
	<path d="m 248.19996,13.451845 c -11.89691,0 -21.53281,9.453816 -21.53281,21.125893 0,11.672078 9.6359,21.12589 21.53281,21.12589 10.41653,0 19.11035,-7.262053 21.10216,-16.900705 h -16.7956 c -2.38203,0 -4.30656,-1.88817 -4.30656,-4.225185 0,-2.337005 1.92453,-4.225174 4.30656,-4.225174 h 19.37952 c 3.47219,0 6.67519,2.825612 6.35215,6.681031 -1.26505,15.184231 -14.2385,27.120391 -30.03823,27.120391 -16.64753,0 -30.14595,-13.243304 -30.14595,-29.576248 0,-16.332941 13.49842,-29.5762483 30.14595,-29.5762483 7.72488,0 14.76344,2.8519937 20.09279,7.5260663 1.77648,1.558066 1.92454,4.225174 0.33646,5.96809 -1.58809,1.742908 -4.30656,1.888168 -6.08305,0.330093 -3.80854,-3.340564 -8.82845,-5.373894 -14.3462,-5.373894 z" fill="#002060" style="stroke:#002060;stroke-width:3;stroke-dasharray:none;stroke-opacity:1" />
	<path d="m 175.39989,5.0017407 c 2.38914,0 4.31942,1.8881327 4.31942,4.2251817 V 55.703928 h 25.91658 c 2.38915,0 4.31944,1.888171 4.31944,4.225179 0,2.337028 -1.93029,4.225189 -4.31944,4.225189 h -30.236 c -2.38919,0 -4.31944,-1.888161 -4.31944,-4.225189 V 9.2269224 c 0,-2.337049 1.93025,-4.2251817 4.31944,-4.2251817 z" fill="#002060" style="stroke:#002060;stroke-width:3;stroke-dasharray:none;stroke-opacity:1" clip-path="url(#clipPath83)" />
	<path d="m 137.47501,7.6026154 c -0.66595,-1.5712389 -2.25628,-2.6011257 -4.00959,-2.6011257 -1.75331,0 -3.34362,1.0298868 -4.00959,2.6011257 L 113.1456,45.629199 107.70886,58.304745 c -0.92424,2.152269 0.12233,4.621277 2.3378,5.519152 2.21548,0.897866 4.75715,-0.118839 5.6814,-2.271008 l 4.32219,-10.074429 h 26.83035 l 4.32219,10.074429 c 0.92427,2.152169 3.46588,3.168874 5.68141,2.271008 2.21544,-0.897875 3.26204,-3.366883 2.33777,-5.519152 l -5.43674,-12.675546 z m 5.77654,35.4254866 h -19.57227 l 9.78614,-22.815966 z" fill="#002060" style="stroke:#002060;stroke-width:3;stroke-dasharray:none;stroke-opacity:1" />
	<path d="m 473.25953,5.0017407 c -4.76487,0 -8.63886,3.7894637 -8.63886,8.4503643 v 21.12591 21.125913 c 0,4.660877 3.87399,8.450368 8.63886,8.450368 h 30.23601 c 2.38914,0 4.31944,-1.888161 4.31944,-4.225189 0,-2.337008 -1.9303,-4.225179 -4.31944,-4.225179 H 473.25953 V 38.803203 h 21.59715 c 2.38915,0 4.31943,-1.888172 4.31943,-4.225188 0,-2.337014 -1.93028,-4.225182 -4.31943,-4.225182 H 473.25953 V 13.452105 h 30.23601 c 2.38914,0 4.31944,-1.888168 4.31944,-4.2251826 0,-2.337049 -1.9303,-4.2251817 -4.31944,-4.2251817 z" fill="#002060" style="stroke:#002060;stroke-width:3;stroke-dasharray:none;stroke-opacity:1" clip-path="url(#clipPath95)" />
</svg>
