<svg viewBox="0 0 318 136" xmlns="http://www.w3.org/2000/svg" author="Hbat(PHHN)">
    <path d="m 163.5,38 c 46.45,0 87.4,19.421 111.58,48.96 L 281,95 H 46 l 5.919,-8.04 C 76.101,57.421 117.05,38 163.5,38 Z" fill="#92e2e6" fill-rule="evenodd" fill-opacity="0.301961"/>
    <path d="m 55,111 55,-96 55,96 z" fill="#5827a1" fill-rule="evenodd"/>
    <path d="M 126,130 181.5,35 237,130 Z" fill="#34175f" fill-rule="evenodd"/>
    <path d="M 88,124 143.5,28 199,124 Z" fill="#4a2187" fill-rule="evenodd"/>
    <path d="m 168,110 55,-95 55,95 z" fill="#4a2187" fill-rule="evenodd"/>
    <path d="M 0,102 C 0,83.775 71.187,69 159,69 c 87.81,0 159,14.775 159,33 0,18.225 -71.19,33 -159,33 C 71.187,135 0,120.225 0,102 Z" fill="#200e3a" fill-rule="evenodd"/>
    <path d="m 39.261,66.856 10.168,-4.255 -1.702,-4.121 -23.381,9.675 1.702,4.121 10.571,-4.39 -7.704,18.589 c -0.18,0.448 0.044,0.985 0.492,1.165 0.135,0.089 0.224,0.089 0.359,0.089 0.358,0 0.672,-0.224 0.806,-0.537 l 3.852,-9.317 h 2.822 v 10.75 c 0,0.493 0.403,0.896 0.896,0.896 0.492,0 0.895,-0.403 0.895,-0.896 v -10.75 h 2.822 l 3.852,9.317 c 0.135,0.358 0.493,0.537 0.807,0.537 0.134,0 0.224,0 0.358,-0.089 0.448,-0.18 0.672,-0.717 0.493,-1.165 z m -4.076,9.227 2.061,-5.016 v 5.016 z m 3.852,0 v -5.016 l 2.106,5.016 z" fill="#a4e7ea"/>
    <path d="m 22.059,72.491 -0.685,-1.655 1.821,-0.754 0.685,1.655 z" fill="#a4e7ea"/>
    <path d="m 53.236,55.255 -4.255,1.657 2.419,5.823 4.21,-1.702 z" fill="#a4e7ea"/>
    <g fill="#ffffff" font-family="Calibri, sans-serif" font-weight="400" font-size="5px">
        <text x="61.493999" y="84">v</text>
        <text x="85.720001" y="83">v</text>
        <text x="126.41" y="80">v</text>
        <text x="192.36" y="80">v</text>
        <text x="231.95" y="84">v</text>
        <text x="268.26001" y="88">v</text>
        <text x="291.10001" y="91">v</text>
        <text x="250.11" y="93">v</text>
        <text x="212.58" y="90">v</text>
        <text x="184.67" y="92">v</text>
        <text x="133.85001" y="96">v</text>
        <text x="98.599998" y="94">v</text>
    </g>
    <path d="m 136,81.5 c 0,-3.59 12.31,-6.5 27.5,-6.5 15.19,0 27.5,2.91 27.5,6.5 0,3.59 -12.31,6.5 -27.5,6.5 C 148.31,88 136,85.09 136,81.5 Z" fill="#d3f3f5" fill-rule="evenodd" fill-opacity="0.301961"/>
    <path d="m 142,81 c 0,-2.761 9.63,-5 21.5,-5 11.87,0 21.5,2.239 21.5,5 0,2.761 -9.63,5 -21.5,5 C 151.63,86 142,83.761 142,81 Z" fill="#d3f3f5" fill-rule="evenodd" fill-opacity="0.301961"/>
    <path d="m 166.4042,71.356234 c 0.1948,0.862494 -0.6375,1.706236 -1.45212,1.349985 -0.69062,-0.262492 -0.95625,-1.106245 -0.47812,-1.837487 1.08024,-1.51875 0.28333,-3.899983 -1.50521,-4.724984 0.81458,1.631239 -0.425,3.112486 -1.15104,3.74998 -0.70833,0.618754 -1.18646,1.275 -1.32813,1.650002 -0.72604,1.856238 0.35417,3.637481 1.09792,4.068717 -0.33646,-0.806228 -0.6375,-2.324978 0.67292,-3.768722 0,0 -0.37188,1.537502 0.4427,2.587492 0.81459,1.068752 0.81459,1.856228 0.81459,1.856228 1.275,0 2.49689,-0.806228 3.01039,-2.137472 0.3542,-0.806249 0.3896,-2.062497 -0.1239,-2.793739" fill="#92e2e6"  style="stroke-width:1.02899"/>
    <path d="m 168.8833,79.887433 -9.96976,-4.312468 c -0.40729,-0.150003 -0.81458,0.01874 -0.97396,0.412516 l -0.2125,0.524963 c -0.15937,0.375034 0.0177,0.825033 0.38959,0.974961 l 2.79791,1.200067 -2.7625,1.199961 c -0.37187,0.150035 -0.54896,0.600033 -0.38958,0.974961 l 0.2125,0.525069 c 0.15938,0.375034 0.56667,0.562445 0.93854,0.412516 l 4.58646,-1.987511 4.5865,1.987511 c 0.3718,0.149929 0.7791,-0.01874 0.9385,-0.412516 l 0.2125,-0.525069 c 0.1417,-0.374928 -0.0177,-0.824926 -0.3542,-0.974961" fill="#92e2e6"    style="stroke-width:1.02899"/>
    <path d="m 168.8833,77.487405 c 0.3719,-0.149928 0.549,-0.599927 0.3896,-0.974961 l -0.2125,-0.524963 c -0.1594,-0.375034 -0.5667,-0.562519 -0.9385,-0.412516 l -3.66565,1.593736 2.58545,1.124996 z" fill="#92e2e6"    style="stroke-width:1.02899"/>
    <path d="M 238,7 241.63,6.631 242,3 242.37,6.631 246,7 242.37,7.369 242,11 241.63,7.369 Z" fill="#ffffff" fill-rule="evenodd"/>
    <path d="M 196,18.5 197.82,18.269 198,16 198.18,18.269 200,18.5 198.18,18.731 198,21 197.82,18.731 Z" fill="#ffffff" fill-rule="evenodd"/>
    <path d="M 158,24.5 161.18,24.177 161.5,21 161.82,24.177 165,24.5 161.82,24.823 161.5,28 161.18,24.823 Z" fill="#ffffff" fill-rule="evenodd"/>
    <path d="M 126,17 129.18,16.631 129.5,13 129.82,16.631 133,17 129.82,17.369 129.5,21 129.18,17.369 Z" fill="#ffffff" fill-rule="evenodd"/>
    <path d="M 258,50.5 259.82,50.269 260,48 260.18,50.269 262,50.5 260.18,50.731 260,53 259.82,50.731 Z" fill="#ffffff" fill-rule="evenodd"/>
    <path d="M 91,28.5 93.27,28.269 93.5,26 93.73,28.269 96,28.5 93.73,28.731 93.5,31 93.27,28.731 Z" fill="#ffffff" fill-rule="evenodd"/>
    <path d="M 54,22.5 C 54,20.567 55.567,19 57.5,19 h 22 c 1.93,0 3.5,1.567 3.5,3.5 v 0 c 0,1.933 -1.57,3.5 -3.5,3.5 h -22 C 55.567,26 54,24.433 54,22.5 Z" fill="#d3f3f5" fill-rule="evenodd"/>
    <path d="m 54,22 c 0,-2.209 2.015,-4 4.5,-4 2.485,0 4.5,1.791 4.5,4 0,2.209 -2.015,4 -4.5,4 C 56.015,26 54,24.209 54,22 Z" fill="#d3f3f5" fill-rule="evenodd"/>
    <path d="M 59,18.5 C 59,16.015 61.015,14 63.5,14 65.985,14 68,16.015 68,18.5 68,20.985 65.985,23 63.5,23 61.015,23 59,20.985 59,18.5 Z" fill="#d3f3f5" fill-rule="evenodd"/>
    <path d="M 64,16.5 C 64,13.462 66.462,11 69.5,11 72.538,11 75,13.462 75,16.5 75,19.538 72.538,22 69.5,22 66.462,22 64,19.538 64,16.5 Z" fill="#d3f3f5" fill-rule="evenodd"/>
    <path d="M 73,18.5 C 73,17.119 74.119,16 75.5,16 76.881,16 78,17.119 78,18.5 78,19.881 76.881,21 75.5,21 74.119,21 73,19.881 73,18.5 Z" fill="#d3f3f5" fill-rule="evenodd"/>
    <path d="m 143,12.5 c 0,-1.933 1.57,-3.5 3.5,-3.5 h 22 c 1.93,0 3.5,1.567 3.5,3.5 v 0 c 0,1.933 -1.57,3.5 -3.5,3.5 h -22 c -1.93,0 -3.5,-1.567 -3.5,-3.5 z" fill="#d3f3f5" fill-rule="evenodd"/>
    <path d="m 143,12 c 0,-2.209 2.01,-4 4.5,-4 2.49,0 4.5,1.791 4.5,4 0,2.209 -2.01,4 -4.5,4 -2.49,0 -4.5,-1.791 -4.5,-4 z" fill="#d3f3f5" fill-rule="evenodd"/>
    <path d="m 148,8.5 c 0,-2.485 2.24,-4.5 5,-4.5 2.76,0 5,2.015 5,4.5 0,2.485 -2.24,4.5 -5,4.5 -2.76,0 -5,-2.015 -5,-4.5 z" fill="#d3f3f5" fill-rule="evenodd"/>
    <path d="m 153,6.5 c 0,-3.038 2.46,-5.5 5.5,-5.5 3.04,0 5.5,2.462 5.5,5.5 0,3.038 -2.46,5.5 -5.5,5.5 -3.04,0 -5.5,-2.462 -5.5,-5.5 z" fill="#d3f3f5" fill-rule="evenodd"/>
    <path d="m 162,8.5 c 0,-1.381 1.12,-2.5 2.5,-2.5 1.38,0 2.5,1.119 2.5,2.5 0,1.381 -1.12,2.5 -2.5,2.5 -1.38,0 -2.5,-1.119 -2.5,-2.5 z" fill="#d3f3f5" fill-rule="evenodd"/>
    <path d="m 249,30.5 c 0,-1.933 1.57,-3.5 3.5,-3.5 h 23 c 1.93,0 3.5,1.567 3.5,3.5 v 0 c 0,1.933 -1.57,3.5 -3.5,3.5 h -23 c -1.93,0 -3.5,-1.567 -3.5,-3.5 z" fill="#d3f3f5" fill-rule="evenodd"/>
    <path d="m 249,30 c 0,-2.209 2.24,-4 5,-4 2.76,0 5,1.791 5,4 0,2.209 -2.24,4 -5,4 -2.76,0 -5,-1.791 -5,-4 z" fill="#d3f3f5" fill-rule="evenodd"/>
    <path d="m 255,26.5 c 0,-2.485 2.01,-4.5 4.5,-4.5 2.49,0 4.5,2.015 4.5,4.5 0,2.485 -2.01,4.5 -4.5,4.5 -2.49,0 -4.5,-2.015 -4.5,-4.5 z" fill="#d3f3f5" fill-rule="evenodd"/>
    <path d="m 260,24.5 c 0,-3.038 2.24,-5.5 5,-5.5 2.76,0 5,2.462 5,5.5 0,3.038 -2.24,5.5 -5,5.5 -2.76,0 -5,-2.462 -5,-5.5 z" fill="#d3f3f5" fill-rule="evenodd"/>
    <path d="m 269,26.5 c 0,-1.381 1.12,-2.5 2.5,-2.5 1.38,0 2.5,1.119 2.5,2.5 0,1.381 -1.12,2.5 -2.5,2.5 -1.38,0 -2.5,-1.119 -2.5,-2.5 z" fill="#d3f3f5" fill-rule="evenodd"/>
</svg>
